<svg preserveAspectRatio="none" overflow="visible" style="display: block;" width="591.229" height="571.977" viewBox="0 0 591.229 571.977" fill="none" xmlns="http://www.w3.org/2000/svg">
<g id="Group 7">
<g id="Rectangle 7" filter="url(#filter0_f_0_73)">
<path d="M139.345 65L526.229 366.002L454.662 450.069L298.725 351.32L127.284 234.477L139.345 65Z" fill="#F3EEE4" fill-opacity="0.48"/>
<path d="M124.943 267.37L441.4 464.252L405.761 506.977L119.881 338.498L124.943 267.37Z" fill="#F3EEE4" fill-opacity="0.48"/>
<path d="M156.865 92.9425L505.619 362.357L451.42 429.088L300.019 333.125L146.895 233.026L151.466 168.796L156.865 92.9425Z" fill="white" fill-opacity="0.39"/>
<path d="M139.345 65L526.229 366.002L454.662 450.069L298.725 351.32L127.284 234.477L139.345 65Z" fill="white" fill-opacity="0.45"/>
<path d="M136.696 280.712L428.434 465.212L401.688 496.904L132.546 339.025L136.696 280.712Z" fill="white" fill-opacity="0.45"/>
</g>
</g>
<defs>
<filter id="filter0_f_0_73" x="54.8812" y="0" width="536.347" height="571.977" filterUnits="userSpaceOnUse" color-interpolation-filters="sRGB">
<feFlood flood-opacity="0" result="BackgroundImageFix"/>
<feBlend mode="normal" in="SourceGraphic" in2="BackgroundImageFix" result="shape"/>
<feGaussianBlur stdDeviation="32.5" result="effect1_foregroundBlur_0_73"/>
</filter>
</defs>
</svg>
