<svg preserveAspectRatio="none" overflow="visible" style="display: block;" width="24" height="24" viewBox="0 0 24 24" fill="none" xmlns="http://www.w3.org/2000/svg">
<g id="Group">
<path id="Vector" d="M8.25764 6.07424H2.2215V8.71101H8.25764V6.07424Z" fill="#F1BC65"/>
<path id="Vector_2" d="M21.7784 6.07424H15.7423V8.71101H21.7784V6.07424Z" fill="#F1BC65"/>
<path id="Vector_3" d="M8.25763 9.35281H0.819266V21.2717H8.25763V9.35281ZM3.31027 13.2682H1.58465V11.71H3.31027V13.2682ZM5.36453 13.2682H3.63901V11.71H5.36453V13.2682ZM7.41884 13.2682H5.69332V11.71H7.41884V13.2682Z" fill="#F1BC65"/>
<path id="Vector_4" d="M23.1807 9.35281H15.7423V21.2717H23.1807V9.35281ZM18.3067 13.2682H16.5811V11.71H18.3067V13.2682ZM20.361 13.2682H18.6354V11.71H20.361V13.2682ZM22.4153 13.2682H20.6897V11.71H22.4153V13.2682Z" fill="#F1BC65"/>
<path id="Vector_5" d="M12.225 5.8223C12.0852 5.6879 11.9965 5.59451 11.959 5.54254C11.9216 5.49047 11.8943 5.43704 11.8772 5.38164C11.86 5.32612 11.8514 5.26111 11.8514 5.1863C11.8514 5.06619 11.8727 4.96873 11.915 4.89423C11.9575 4.81952 12.0184 4.78237 12.0977 4.78237C12.1645 4.78237 12.2324 4.79959 12.3014 4.83423C12.3705 4.86866 12.4577 4.9296 12.5633 5.01715L12.6986 4.35913C12.5967 4.26991 12.499 4.20063 12.4056 4.15169C12.3122 4.10254 12.2142 4.07792 12.1113 4.07792C11.902 4.07792 11.738 4.17892 11.6193 4.38105C11.5007 4.58306 11.4413 4.86052 11.4413 5.21364C11.4413 5.40115 11.4595 5.56498 11.4956 5.70511C11.5316 5.84525 11.58 5.96807 11.6403 6.07346C11.7008 6.17906 11.7915 6.28905 11.9124 6.40372C12.0414 6.52769 12.1269 6.61774 12.1689 6.67398C12.2108 6.73065 12.2426 6.78918 12.2642 6.85012C12.2859 6.91117 12.2967 6.98077 12.2967 7.05924C12.2967 7.19948 12.2721 7.30477 12.223 7.37562C12.1738 7.44668 12.1032 7.48216 12.0112 7.48216C11.9345 7.48216 11.8498 7.45774 11.7574 7.40849C11.6649 7.35945 11.552 7.27471 11.4184 7.15451V7.94066C11.5809 8.10073 11.7675 8.18098 11.9786 8.18098C12.2079 8.18098 12.3867 8.07715 12.5153 7.86981C12.6438 7.66237 12.7081 7.37854 12.7081 7.01802C12.7081 6.75788 12.6739 6.53802 12.6053 6.35885C12.5368 6.17958 12.41 6.00073 12.225 5.8223Z" fill="#F1BC65"/>
<path id="Vector_6" d="M23.4988 21.7518H15.5208C15.5208 16.1958 15.5208 4.28077 15.5208 1.09273C14.3624 0.364278 13.1812 0 12.0002 0C10.819 0 9.63793 0.364278 8.4792 1.09273C8.4792 4.28087 8.4792 16.1958 8.4792 21.7518H0.501202H0V24H8.25764H15.7424H24V21.7518H23.4988ZM10.5943 3.25492H13.4057V9.35478H10.5943V3.25492ZM12.7901 21.7518H11.2099V15.1101H12.7901V21.7518ZM14.5002 14.8396C12.7942 13.9097 11.2053 13.9096 9.49976 14.8396L9.37649 13.9196C11.166 12.9437 12.8333 12.9437 14.6235 13.9196L14.5002 14.8396Z" fill="#F1BC65"/>
</g>
</svg>
